HIERARCHY
ROOT Hips
{
	OFFSET 0.000000 121.760803 0.000000
	CHANNELS 6 Xposition Yposition Zposition Xrotation Yrotation Zrotation 
	JOINT Spine
	{
		OFFSET 0.072000 7.257294 -0.789700
		CHANNELS 3 Xrotation Yrotation Zrotation
		JOINT Spine1
		{
			OFFSET 0.000000 12.508769 -0.658067
			CHANNELS 3 Xrotation Yrotation Zrotation
			JOINT Spine1_split
			{
				OFFSET 0.000000 12.508769 -0.658067
				CHANNELS 3 Xrotation Yrotation Zrotation
				JOINT Spine2
				{
					OFFSET 0.000000 12.508769 -0.658067
					CHANNELS 3 Xrotation Yrotation Zrotation
					JOINT Neck
					{
						OFFSET 0.000000 14.033295 7.520400
						CHANNELS 3 Xrotation Yrotation Zrotation
						JOINT Head
						{
							OFFSET 0.000000 8.198502 5.703100
							CHANNELS 3 Xrotation Yrotation Zrotation
							JOINT HeadTop_End
							{
								OFFSET 0.000000 17.760803 13.332701
								CHANNELS 3 Xrotation Yrotation Zrotation
								End Site
								{
									OFFSET 0.000000 0.000000 0.000000
								}
							}
						}
					}
					JOINT LeftShoulder
					{
						OFFSET 6.292450 5.785301 -0.669000
						CHANNELS 3 Xrotation Yrotation Zrotation
						JOINT LeftShoulder_split
						{
							OFFSET 6.292450 5.785301 -0.669000
							CHANNELS 3 Xrotation Yrotation Zrotation
							JOINT LeftArm
							{
								OFFSET 13.907140 -6.093903 1.965100
								CHANNELS 3 Xrotation Yrotation Zrotation
								JOINT LeftForeArm
								{
									OFFSET 34.140198 0.000000 0.000000
									CHANNELS 3 Xrotation Yrotation Zrotation
									JOINT LeftHand
									{
										OFFSET 40.960209 0.000000 0.000000
										CHANNELS 3 Xrotation Yrotation Zrotation
										JOINT LeftHandThumb1
										{
											OFFSET 10.006996 -7.170425 9.573125
											CHANNELS 3 Xrotation Yrotation Zrotation
											JOINT LeftHandThumb2
											{
												OFFSET 1.835007 -1.059448 1.059443
												CHANNELS 3 Xrotation Yrotation Zrotation
												JOINT LeftHandThumb3
												{
													OFFSET 2.112267 -1.219513 1.219518
													CHANNELS 3 Xrotation Yrotation Zrotation
													JOINT LeftHandThumb4
													{
														OFFSET 4.843811 -2.796570 2.796576
														CHANNELS 3 Xrotation Yrotation Zrotation
														End Site
														{
															OFFSET 0.000000 0.000000 0.000000
														}
													}
												}
											}
										}
										JOINT LeftHandIndex1
										{
											OFFSET 18.389847 -0.922348 4.596882
											CHANNELS 3 Xrotation Yrotation Zrotation
											JOINT LeftHandIndex2
											{
												OFFSET 4.711273 0.000000 0.000000
												CHANNELS 3 Xrotation Yrotation Zrotation
												JOINT LeftHandIndex3
												{
													OFFSET 2.886131 0.000000 0.000000
													CHANNELS 3 Xrotation Yrotation Zrotation
													JOINT LeftHandIndex4
													{
														OFFSET 6.145912 0.000000 0.000000
														CHANNELS 3 Xrotation Yrotation Zrotation
														End Site
														{
															OFFSET 0.000000 0.000000 0.000000
														}
													}
												}
											}
										}
										JOINT LeftHandMiddle1
										{
											OFFSET 18.013008 0.000000 0.000000
											CHANNELS 3 Xrotation Yrotation Zrotation
											JOINT LeftHandMiddle2
											{
												OFFSET 4.946693 0.000000 0.000000
												CHANNELS 3 Xrotation Yrotation Zrotation
												JOINT LeftHandMiddle3
												{
													OFFSET 3.342232 0.000000 0.000000
													CHANNELS 3 Xrotation Yrotation Zrotation
													JOINT LeftHandMiddle4
													{
														OFFSET 4.461754 0.000000 0.000000
														CHANNELS 3 Xrotation Yrotation Zrotation
														End Site
														{
															OFFSET 0.000000 0.000000 0.000000
														}
													}
												}
											}
										}
										JOINT LeftHandRing1
										{
											OFFSET 15.849892 -0.102921 -4.126150
											CHANNELS 3 Xrotation Yrotation Zrotation
											JOINT LeftHandRing2
											{
												OFFSET 3.527054 0.000000 0.000000
												CHANNELS 3 Xrotation Yrotation Zrotation
												JOINT LeftHandRing3
												{
													OFFSET 2.961098 0.000000 0.000000
													CHANNELS 3 Xrotation Yrotation Zrotation
													JOINT LeftHandRing4
													{
														OFFSET 4.927200 0.000000 0.000000
														CHANNELS 3 Xrotation Yrotation Zrotation
														End Site
														{
															OFFSET 0.000000 0.000000 0.000000
														}
													}
												}
											}
										}
										JOINT LeftHandPinky1
										{
											OFFSET 12.791824 -0.832031 -6.799156
											CHANNELS 3 Xrotation Yrotation Zrotation
											JOINT LeftHandPinky2
											{
												OFFSET 3.327133 0.000000 0.000000
												CHANNELS 3 Xrotation Yrotation Zrotation
												JOINT LeftHandPinky3
												{
													OFFSET 3.014900 0.000000 0.000000
													CHANNELS 3 Xrotation Yrotation Zrotation
													JOINT LeftHandPinky4
													{
														OFFSET 5.847786 0.000000 0.000000
														CHANNELS 3 Xrotation Yrotation Zrotation
														End Site
														{
															OFFSET 0.000000 0.000000 0.000000
														}
													}
												}
											}
										}
									}
								}
							}
						}
					}
					JOINT RightShoulder
					{
						OFFSET -6.292450 5.785301 -0.669000
						CHANNELS 3 Xrotation Yrotation Zrotation
						JOINT RightShoulder_split
						{
							OFFSET -6.292450 5.785301 -0.669000
							CHANNELS 3 Xrotation Yrotation Zrotation
							JOINT RightArm
							{
								OFFSET -13.907140 -6.093903 1.965100
								CHANNELS 3 Xrotation Yrotation Zrotation
								JOINT RightForeArm
								{
									OFFSET -34.140198 0.000000 0.000000
									CHANNELS 3 Xrotation Yrotation Zrotation
									JOINT RightHand
									{
										OFFSET -40.960209 0.000000 0.000000
										CHANNELS 3 Xrotation Yrotation Zrotation
										JOINT RightHandThumb1
										{
											OFFSET -10.007050 -7.170456 9.573117
											CHANNELS 3 Xrotation Yrotation Zrotation
											JOINT RightHandThumb2
											{
												OFFSET -1.835007 -1.059448 1.059443
												CHANNELS 3 Xrotation Yrotation Zrotation
												JOINT RightHandThumb3
												{
													OFFSET -2.112267 -1.219513 1.219518
													CHANNELS 3 Xrotation Yrotation Zrotation
													JOINT RightHandThumb4
													{
														OFFSET -4.843834 -2.796585 2.796590
														CHANNELS 3 Xrotation Yrotation Zrotation
														End Site
														{
															OFFSET 0.000000 0.000000 0.000000
														}
													}
												}
											}
										}
										JOINT RightHandIndex1
										{
											OFFSET -18.389870 -0.922424 4.596786
											CHANNELS 3 Xrotation Yrotation Zrotation
											JOINT RightHandIndex2
											{
												OFFSET -4.711273 0.000000 0.000000
												CHANNELS 3 Xrotation Yrotation Zrotation
												JOINT RightHandIndex3
												{
													OFFSET -2.886131 0.000000 0.000000
													CHANNELS 3 Xrotation Yrotation Zrotation
													JOINT RightHandIndex4
													{
														OFFSET -6.145920 0.000000 0.000000
														CHANNELS 3 Xrotation Yrotation Zrotation
														End Site
														{
															OFFSET 0.000000 0.000000 0.000000
														}
													}
												}
											}
										}
										JOINT RightHandMiddle1
										{
											OFFSET -18.013008 0.000000 0.000000
											CHANNELS 3 Xrotation Yrotation Zrotation
											JOINT RightHandMiddle2
											{
												OFFSET -4.946693 0.000000 0.000000
												CHANNELS 3 Xrotation Yrotation Zrotation
												JOINT RightHandMiddle3
												{
													OFFSET -3.342232 0.000000 0.000000
													CHANNELS 3 Xrotation Yrotation Zrotation
													JOINT RightHandMiddle4
													{
														OFFSET -4.461754 0.000000 0.000000
														CHANNELS 3 Xrotation Yrotation Zrotation
														End Site
														{
															OFFSET 0.000000 0.000000 0.000000
														}
													}
												}
											}
										}
										JOINT RightHandRing1
										{
											OFFSET -15.849876 -0.102936 -4.126237
											CHANNELS 3 Xrotation Yrotation Zrotation
											JOINT RightHandRing2
											{
												OFFSET -3.527054 0.000000 0.000000
												CHANNELS 3 Xrotation Yrotation Zrotation
												JOINT RightHandRing3
												{
													OFFSET -2.961098 0.000000 0.000000
													CHANNELS 3 Xrotation Yrotation Zrotation
													JOINT RightHandRing4
													{
														OFFSET -4.927200 0.000000 0.000000
														CHANNELS 3 Xrotation Yrotation Zrotation
														End Site
														{
															OFFSET 0.000000 0.000000 0.000000
														}
													}
												}
											}
										}
										JOINT RightHandPinky1
										{
											OFFSET -12.791786 -0.832077 -6.799222
											CHANNELS 3 Xrotation Yrotation Zrotation
											JOINT RightHandPinky2
											{
												OFFSET -3.327133 0.000000 0.000000
												CHANNELS 3 Xrotation Yrotation Zrotation
												JOINT RightHandPinky3
												{
													OFFSET -3.014900 0.000000 0.000000
													CHANNELS 3 Xrotation Yrotation Zrotation
													JOINT RightHandPinky4
													{
														OFFSET -5.847786 0.000000 0.000000
														CHANNELS 3 Xrotation Yrotation Zrotation
														End Site
														{
															OFFSET 0.000000 0.000000 0.000000
														}
													}
												}
											}
										}
									}
								}
							}
						}
					}
				}
			}
		}
	}
	JOINT LeftUpLeg
	{
		OFFSET 13.026900 -6.336304 -1.092800
		CHANNELS 3 Xrotation Yrotation Zrotation
		JOINT LeftLeg
		{
			OFFSET 0.524474 -46.096886 9.782700
			CHANNELS 3 Xrotation Yrotation Zrotation
			JOINT LeftFoot
			{
				OFFSET -0.524474 -53.427422 -12.948200
				CHANNELS 3 Xrotation Yrotation Zrotation
				JOINT LeftToeBase
				{
					OFFSET 0.192200 -14.009700 16.364100
					CHANNELS 3 Xrotation Yrotation Zrotation
					JOINT LeftToe_End
					{
						OFFSET -1.784700 -0.561700 9.474800
						CHANNELS 3 Xrotation Yrotation Zrotation
						End Site
						{
							OFFSET 0.000000 0.000000 0.000000
						}
					}
				}
			}
		}
	}
	JOINT RightUpLeg
	{
		OFFSET -12.883000 -6.336304 -1.092800
		CHANNELS 3 Xrotation Yrotation Zrotation
		JOINT RightLeg
		{
			OFFSET -0.524587 -46.096825 9.782800
			CHANNELS 3 Xrotation Yrotation Zrotation
			JOINT RightFoot
			{
				OFFSET 0.524587 -53.427383 -12.948300
				CHANNELS 3 Xrotation Yrotation Zrotation
				JOINT RightToeBase
				{
					OFFSET -0.192200 -14.009700 16.364100
					CHANNELS 3 Xrotation Yrotation Zrotation
					JOINT RightToe_End
					{
						OFFSET 1.784700 -0.561700 9.474800
						CHANNELS 3 Xrotation Yrotation Zrotation
						End Site
						{
							OFFSET 0.000000 0.000000 0.000000
						}
					}
				}
			}
		}
	}
}
MOTION
Frames: 4
Frame Time: 0.016667
8.746874 118.282906 0.378868 0.024027 -13.958525 -3.088566 1.278256 -1.089810 -1.074689 0.247989 -0.899456 -0.732542 0.000000 0.000000 0.000000 0.243785 -0.917160 -0.703880 0.749591 2.295824 1.468098 -1.250655 13.693913 -1.535068 0.000000 -0.000000 -0.000000 -1.488744 9.670793 -3.001458 0.000000 0.000000 0.000000 40.860490 -60.704843 -25.987202 0.000007 -22.817326 0.000009 -25.332863 2.522404 11.628331 -3.405752 19.076285 14.453261 15.249473 14.620640 -5.800679 4.892158 5.223031 0.075628 0.000002 0.000002 -0.000001 0.380315 2.260824 -19.095172 0.158438 1.471495 -12.290087 0.039711 0.740005 -6.144024 -0.000002 0.000000 0.000001 0.379679 2.258990 -19.079160 0.158863 1.473395 -12.306082 0.039715 0.739995 -6.144029 0.000002 -0.000001 -0.000001 0.380312 2.260821 -19.095177 0.158440 1.471509 -12.290088 0.039713 0.739997 -6.144027 0.000001 0.000001 0.000000 1.696006 6.096982 -18.680668 0.153591 -2.584207 -12.789185 0.039709 0.740004 -6.144021 0.000001 -0.000001 -0.000001 4.389555 5.095589 -14.946399 0.000000 0.000000 0.000000 -41.397848 -19.780020 36.650843 0.000087 107.697665 -0.000091 -54.775300 -10.060509 16.832151 -38.571854 8.421477 28.523271 20.647197 -5.709692 -0.778460 6.673648 1.573253 -3.478672 -0.000003 0.000000 0.000000 6.266101 -6.914843 84.352331 5.176799 -6.719685 75.194768 1.436821 -4.237639 37.445351 0.000003 0.000001 -0.000002 6.266100 -6.914838 84.352331 5.176785 -6.719692 75.194775 1.436813 -4.237647 37.445348 0.000001 0.000000 -0.000001 6.266099 -6.914842 84.352324 5.176798 -6.719697 75.194782 1.436820 -4.237644 37.445354 0.000002 0.000002 -0.000001 6.266106 -6.914832 84.352331 5.176780 -6.719706 75.194762 1.436825 -4.237653 37.445348 0.000000 -0.000000 -0.000001 -14.972608 21.549296 9.610823 19.958583 9.862380 5.234087 -6.055124 7.363328 -7.488609 -0.000002 -0.000011 0.000001 0.000000 -0.000001 0.000000 -13.394620 -18.951239 -6.582812 12.284121 9.552277 -3.329694 -0.536784 8.090777 8.513189 0.000000 -0.000008 -0.000000 0.000000 -0.000001 -0.000000 
8.537477 118.284477 0.382928 0.038989 -13.771967 -3.069080 1.280574 -1.077455 -1.014078 0.244306 -0.890369 -0.689608 0.000000 0.000000 0.000000 0.239953 -0.906833 -0.661084 0.708957 2.285033 1.414967 -1.291728 13.566501 -1.516494 0.000000 -0.000000 0.000001 -1.481851 9.673273 -3.066331 0.000000 0.000000 0.000000 40.859629 -60.864588 -25.969296 -0.000032 -22.750785 0.000002 -25.272294 2.521543 11.564788 -3.405750 19.076285 14.453259 15.249468 14.620643 -5.800678 4.892163 5.223030 0.075628 -0.000002 0.000001 -0.000000 0.380315 2.260824 -19.095170 0.158439 1.471497 -12.290088 0.039710 0.740003 -6.144022 -0.000000 0.000001 0.000000 0.379677 2.258992 -19.079157 0.158853 1.473396 -12.306082 0.039711 0.739996 -6.144028 -0.000003 0.000001 0.000001 0.380311 2.260820 -19.095174 0.158440 1.471508 -12.290084 0.039713 0.739995 -6.144029 -0.000002 -0.000000 -0.000000 1.696000 6.096985 -18.680668 0.153597 -2.584207 -12.789186 0.039710 0.740005 -6.144021 -0.000003 0.000000 0.000000 4.393042 5.145392 -14.614276 0.000000 0.000000 0.000000 -40.060029 -18.545338 36.976923 -0.000006 107.194177 -0.000005 -53.879449 -10.236979 17.000802 -38.575464 8.422912 28.525146 25.307285 -7.950577 -1.561567 8.978160 0.451550 -4.203930 0.000002 -0.000000 -0.000002 5.616218 -6.819965 78.921135 4.647626 -6.558046 70.620051 1.273542 -4.016028 35.176799 0.000003 0.000003 -0.000001 5.616213 -6.819977 78.921135 4.647613 -6.558057 70.620044 1.273546 -4.016037 35.176799 -0.000002 0.000001 -0.000000 5.616209 -6.819977 78.921128 4.647618 -6.558062 70.620037 1.273539 -4.016047 35.176810 0.000003 -0.000001 -0.000001 5.616220 -6.819967 78.921128 4.647597 -6.558066 70.620044 1.273551 -4.016040 35.176792 -0.000003 0.000001 -0.000001 -14.998276 21.471847 9.704829 19.921838 9.858718 5.220515 -5.971498 7.266869 -7.582843 -0.000002 -0.000013 0.000001 -0.000000 -0.000001 -0.000000 -13.358382 -18.829392 -6.579041 12.417644 9.560562 -3.161075 -0.657287 7.768555 8.338332 -0.000002 -0.000000 0.000000 0.000000 -0.000000 0.000000 
8.321459 118.288185 0.386552 0.048006 -13.587198 -3.056546 1.285035 -1.069429 -0.952728 0.241808 -0.884485 -0.647218 0.000000 0.000000 0.000000 0.237302 -0.899711 -0.618707 0.663437 2.273473 1.368834 -1.324470 13.444066 -1.498671 0.000000 0.000000 -0.000000 -1.475811 9.676774 -3.126217 0.000000 0.000000 0.000000 40.863458 -61.027658 -25.944144 -0.000001 -22.683938 0.000007 -25.239998 2.530291 11.484774 -3.405750 19.076280 14.453271 15.249471 14.620640 -5.800676 4.892155 5.223029 0.075627 -0.000001 0.000001 0.000000 0.380313 2.260823 -19.095168 0.158438 1.471497 -12.290088 0.039713 0.740004 -6.144021 -0.000002 -0.000001 -0.000001 0.379677 2.258989 -19.079158 0.158854 1.473397 -12.306083 0.039715 0.739997 -6.144028 0.000001 -0.000001 0.000000 0.380312 2.260820 -19.095174 0.158445 1.471507 -12.290083 0.039717 0.739996 -6.144028 0.000001 0.000000 0.000000 1.696003 6.096983 -18.680668 0.153595 -2.584205 -12.789185 0.039705 0.740005 -6.144022 -0.000003 0.000000 0.000000 4.393937 5.191679 -14.254581 0.000000 0.000000 0.000000 -38.714789 -17.278388 37.271878 0.000047 106.679645 -0.000059 -53.035299 -10.392674 17.074689 -38.565622 8.419042 28.520029 29.758192 -10.003528 -1.882575 11.181010 -0.630446 -4.665760 -0.000002 -0.000003 -0.000001 4.775624 -6.601395 71.737053 4.103748 -6.341907 65.781429 1.110488 -3.774649 32.777012 0.000001 -0.000003 -0.000001 4.775619 -6.601400 71.737053 4.103758 -6.341903 65.781443 1.110482 -3.774645 32.776999 0.000001 -0.000000 0.000000 4.775619 -6.601403 71.737067 4.103754 -6.341907 65.781429 1.110476 -3.774649 32.777005 0.000001 -0.000001 -0.000001 4.775626 -6.601399 71.737060 4.103753 -6.341904 65.781436 1.110484 -3.774658 32.777009 -0.000001 -0.000001 -0.000001 -15.015638 21.381070 9.813203 19.882672 9.855605 5.193570 -5.886091 7.172762 -7.677420 -0.000002 -0.000013 0.000001 -0.000000 -0.000001 -0.000000 -13.307610 -18.724863 -6.545535 12.542277 9.567587 -3.027018 -0.776787 7.460260 8.173476 -0.000001 -0.000001 -0.000000 0.000000 -0.000003 -0.000000 
8.099966 118.294487 0.389373 0.046515 -13.404327 -3.052342 1.291379 -1.065999 -0.891738 0.240359 -0.881938 -0.605871 0.000000 0.000000 0.000000 0.235707 -0.895951 -0.577245 0.611921 2.260310 1.331698 -1.350458 13.324901 -1.480446 0.000000 -0.000000 0.000000 -1.470858 9.679984 -3.176228 0.000000 0.000000 0.000000 40.866159 -61.194875 -25.918654 0.000001 -22.613891 -0.000008 -25.231071 2.553778 11.386509 -3.405746 19.076285 14.453261 15.249471 14.620643 -5.800674 4.892155 5.223031 0.075630 0.000000 0.000002 0.000000 0.380320 2.260825 -19.095174 0.158438 1.471498 -12.290089 0.039718 0.740006 -6.144024 0.000002 -0.000001 -0.000001 0.379682 2.258992 -19.079164 0.158856 1.473396 -12.306083 0.039708 0.739998 -6.144025 -0.000001 0.000000 0.000001 0.380310 2.260824 -19.095175 0.158441 1.471506 -12.290084 0.039712 0.739997 -6.144027 0.000002 0.000000 -0.000000 1.696005 6.096985 -18.680672 0.153596 -2.584205 -12.789186 0.039708 0.740004 -6.144022 0.000003 -0.000000 -0.000001 4.391628 5.233459 -13.862316 0.000000 0.000000 0.000000 -37.354984 -15.971187 37.525927 0.000079 106.153448 -0.000052 -52.233633 -10.519494 17.034885 -38.310394 8.317423 28.387246 33.606006 -11.676522 -1.838685 13.081507 -1.576541 -4.879219 -0.000003 -0.000003 -0.000002 3.866131 -6.230256 63.611492 3.573353 -6.077061 60.880686 0.955707 -3.523191 30.345472 -0.000001 -0.000001 -0.000001 3.866135 -6.230250 63.611492 3.573332 -6.077065 60.880673 0.955699 -3.523196 30.345475 -0.000001 -0.000004 -0.000003 3.866124 -6.230261 63.611498 3.573350 -6.077074 60.880686 0.955716 -3.523192 30.345485 0.000001 -0.000001 -0.000003 3.866125 -6.230256 63.611492 3.573343 -6.077074 60.880673 0.955708 -3.523195 30.345485 -0.000001 0.000001 0.000000 -15.021239 21.280066 9.931133 19.839401 9.852540 5.163862 -5.795533 7.077862 -7.776448 -0.000002 -0.000013 0.000001 0.000000 -0.000001 0.000000 -13.235872 -18.625671 -6.485528 12.656131 9.573386 -2.917754 -0.894045 7.155505 8.015834 -0.000002 0.000005 -0.000001 0.000000 -0.000000 0.000000 
